<?xml version="1.0" encoding="UTF-8"?>
<svg width="44px" height="30px" viewBox="0 0 44 30" version="1.1" xmlns="http://www.w3.org/2000/svg" xmlns:xlink="http://www.w3.org/1999/xlink">
    <!-- Generator: Sketch 51.3 (57544) - http://www.bohemiancoding.com/sketch -->
    <title>Group</title>
    <desc>Created with Sketch.</desc>
    <defs>
        <polygon id="path-1" points="9.38166312e-06 0.0370950434 43.9947463 0.0370950434 43.9947463 15.8730054 9.38166312e-06 15.8730054"></polygon>
        <polygon id="path-3" points="0.0433561462 0.027027027 10.4124295 0.027027027 10.4124295 11.8101159 0.0433561462 11.8101159"></polygon>
    </defs>
    <g id="-Admin" stroke="none" stroke-width="1" fill="none" fill-rule="evenodd">
        <g id="2" transform="translate(-56.000000, -160.000000)">
            <g id="Group-9" transform="translate(56.000000, 150.000000)">
                <g id="Group" transform="translate(0.000000, 10.000000)">
                    <g id="Group-3" transform="translate(0.000000, 13.492063)">
                        <mask id="mask-2" fill="white">
                            <use xlink:href="#path-1"></use>
                        </mask>
                        <g id="Clip-2"></g>
                        <path d="M42.5511991,11.1561968 L31.6483932,11.1561968 L31.6483932,10.6640282 L31.6483932,10.4774414 L31.6483932,10.2851782 L31.6483932,10.0080837 L31.6483932,9.92325239 L31.6483932,9.82706822 L31.6483932,9.65172921 L31.6483932,9.62345212 L31.6483932,9.55554504 L31.6483932,9.49341953 L31.6483932,9.45378955 L31.6483932,9.38020603 L31.6483932,9.30115631 L31.6483932,9.26152633 L31.6483932,9.21054347 L31.6483932,9.15977084 L31.6483932,9.10878797 L31.6483932,8.98443183 L31.6483932,8.92787764 L31.6483932,8.85429412 L31.6483932,8.78071061 L31.6130243,8.63943025 L31.6130243,8.58287606 L31.6130243,8.5318932 L31.6130243,8.49236834 L31.6130243,8.43581415 L31.6130243,8.36223063 L31.5423804,8.14169032 C30.8847258,6.18268685 29.5433356,4.60831494 27.8274294,3.78113108 C28.1309262,3.27750447 28.5001885,2.82759382 28.9226448,2.4464312 C29.72018,1.94101755 30.6211011,1.67601177 31.5374081,1.67716809 L37.2007429,1.67716809 C40.1522141,1.6865237 42.5428495,4.36506885 42.5511991,7.67222748 L42.5511991,11.1561968 Z M30.1744401,10.754641 L30.1744401,14.2385052 L13.825391,14.2385052 L13.825391,10.6924104 L13.825391,10.5058236 L13.825391,10.2116998 L13.825391,10.0646379 L13.825391,9.8949753 L13.825391,9.71395984 L13.825391,9.65740566 L13.825391,9.59517502 L13.825391,9.47081888 L13.8556,9.33500473 L13.9060733,9.13138863 L13.9414422,8.9956796 C14.666551,6.53325975 16.7153186,4.86617261 19.0293996,4.85566067 L19.1757535,4.76515295 L24.8391821,4.76515295 C27.5266533,4.7762956 29.7931693,7.01123725 30.1442311,9.99673079 C30.1442311,10.1210869 30.1442311,10.2456533 30.1744401,10.3700095 L30.1744401,10.754641 Z M12.4170158,10.0194366 L12.4170158,10.1947756 L12.4170158,10.4266688 L12.4170158,10.754641 L12.4170158,11.1505203 L1.46373646,11.1505203 L1.46373646,7.67222748 C1.47208614,4.36506885 3.86262772,1.6865237 6.81428657,1.67716809 L12.4725552,1.67716809 C13.3888623,1.67601177 14.2896896,1.94101755 15.0872247,2.4464312 C15.6218857,2.78512562 16.1015701,3.22315778 16.5056384,3.7415011 C14.228052,4.8492484 12.6637535,7.25122464 12.4170158,10.0194366 Z M37.2007429,0.0370966046 L31.5423804,0.0370966046 C30.3729561,0.0362556502 29.2234209,0.375160307 28.2059795,1.02111847 C27.3398644,1.57152318 26.5907386,2.32606959 26.0102013,3.2325134 C25.6235829,3.1568275 25.2318047,3.11908967 24.8391821,3.11940502 L19.1757535,3.11940502 C18.7832247,3.11898455 18.3914465,3.1568275 18.0047343,3.2325134 C17.4243846,2.32585935 16.6752588,1.57141806 15.8090499,1.02111847 C14.7915147,0.375160307 13.6419795,0.0362556502 12.4725552,0.0370966046 L6.81428657,0.0370966046 C3.05430362,0.046347104 0.00835906183,3.45925576 9.38166312e-06,7.67222748 L9.38166312e-06,11.9762325 C0.0028238806,12.4269841 0.329587207,12.7906969 0.731872921,12.7906969 L12.3413996,12.7906969 L12.3413996,15.0528645 C12.3413996,15.5058236 12.6690072,15.8730054 13.0732631,15.8730054 L30.9215019,15.8730054 C31.3257578,15.8730054 31.6534593,15.5058236 31.6534593,15.0528645 L31.6534593,12.7906969 L43.2628921,12.7906969 C43.667148,12.7906969 43.9948495,12.4235152 43.9948495,11.9705561 L43.9948495,7.67222748 C43.9864998,3.46808578 40.9527514,0.0588563019 37.2007429,0.0370966046 Z" id="Fill-1" fill="#FFFFFF" mask="url(#mask-2)"></path>
                    </g>
                    <path d="M12.0855934,8.96056307 C10.6213207,10.6251594 8.24678833,10.6258096 6.78184814,8.96175501 C5.3170033,7.29770042 5.31643117,4.5994766 6.78079923,2.93477186 C8.2451673,1.27017548 10.6196043,1.26952533 12.0845445,2.93357992 C12.787979,3.73261219 13.1832258,4.81640941 13.1835119,5.94658388 C13.1849422,7.07719179 12.7898861,8.16196423 12.0855934,8.96056307 M13.13736,1.74890135 C12.1570144,0.628370746 10.8236642,-0.0011895298 9.43319632,2.40875907e-06 C6.54031371,-0.00292325862 4.1930529,2.65965077 4.19047831,5.94701732 C4.18790372,9.23438386 6.53096891,11.901834 9.42394688,11.9047597 C12.3170202,11.907577 14.6641857,9.24511131 14.6666649,5.95763641 C14.6678091,4.37994318 14.117801,2.86618121 13.13736,1.74890135" id="Fill-4" fill="#FFFFFF"></path>
                    <g id="Group-8" transform="translate(29.333333, 0.000000)">
                        <mask id="mask-4" fill="white">
                            <use xlink:href="#path-3"></use>
                        </mask>
                        <g id="Clip-7"></g>
                        <path d="M7.85359417,8.89934577 C6.40429344,10.5469219 4.05404033,10.5474582 2.60407894,8.90052553 C1.90783698,8.10966323 1.51653711,7.03694766 1.51634835,5.91832904 C1.51502703,4.79928142 1.90594938,3.72570785 2.60304076,2.93516731 C4.05243586,1.28748391 6.40259459,1.28694766 7.85255598,2.93398756 C9.30251737,4.58092021 9.30289489,7.25176963 7.85359417,8.89934577 M5.23256456,0.026973402 C2.36926126,0.0241848992 0.0459064779,2.65942728 0.0433582154,5.91328829 C0.0421312741,7.4749571 0.586610039,8.97334835 1.55712055,10.0789897 C2.52734792,11.1880631 3.84715916,11.8111862 5.2234097,11.8101137 C8.086713,11.8129022 10.4099734,9.1776598 10.4124273,5.92369155 C10.4150699,2.66983054 8.09577349,0.0298691549 5.23256456,0.026973402" id="Fill-6" fill="#FFFFFF" mask="url(#mask-4)"></path>
                    </g>
                    <path d="M21.9963967,13.4033994 C19.9231627,13.4026401 18.242985,11.4922658 18.2434622,9.13632181 C18.2440349,6.78048631 19.925358,4.87108814 21.9984012,4.87163046 C22.9939277,4.87195585 23.9486023,5.32153864 24.6524386,6.12167669 C25.3574202,6.9210555 25.7527674,8.00688742 25.7514311,9.13870802 C25.750763,11.494652 24.0696308,13.4039417 21.9963967,13.4033994 M25.6974073,4.91078592 C24.7150527,3.79816343 23.384407,3.17384533 21.9974467,3.17460457 C20.6056185,3.17351993 19.270964,3.80369508 18.2897547,4.92532008 C16.2476368,7.25393115 16.2533637,11.0227256 18.3025448,13.3432019 C20.3517259,15.6637867 23.6682704,15.6571704 25.7102929,13.3287762 C27.7524108,11.0001652 27.7465884,7.23137066 25.6974073,4.91078592" id="Fill-9" fill="#FFFFFF"></path>
                </g>
            </g>
        </g>
    </g>
</svg>