<?xml version="1.0" encoding="UTF-8"?>
<svg width="38px" height="28px" viewBox="0 0 38 28" version="1.1" xmlns="http://www.w3.org/2000/svg" xmlns:xlink="http://www.w3.org/1999/xlink">
    <!-- Generator: Sketch 51.3 (57544) - http://www.bohemiancoding.com/sketch -->
    <title>back-green-button copy</title>
    <desc>Created with Sketch.</desc>
    <defs></defs>
    <g id="Symbols" stroke="none" stroke-width="1" fill="none" fill-rule="evenodd">
        <g id="Menu-and-back-for-dark" transform="translate(0.000000, -3.000000)" fill="#91BD2C" fill-rule="nonzero">
            <g id="back-green-button-copy" transform="translate(0.000000, 3.000000)">
                <path d="M12.3962863,1.04467214 C12.9315188,0.50793194 13.7748241,0.50793194 14.3100566,1.04467214 C14.829207,1.56331998 14.829207,2.42320994 14.3100566,2.94185777 L4.60149183,12.6504226 L36.6395546,12.6504226 C37.3878749,12.6504226 38,13.2464655 38,13.9882525 C38,14.7365729 37.3878749,15.348698 36.6395546,15.348698 L4.60149183,15.348698 L14.3100566,25.0406781 C14.829207,25.5764131 14.829207,26.443339 14.3100566,26.9564586 C13.7748241,27.4916911 12.9315188,27.4916911 12.3962863,26.9564586 L0.388985875,14.9491582 C-0.129661958,14.4305104 -0.129661958,13.5706204 0.388985875,13.0519726 L12.3962863,1.04467214 Z" id="Fill-1"></path>
            </g>
        </g>
    </g>
</svg>