<?xml version="1.0" encoding="UTF-8"?>
<svg width="34px" height="34px" viewBox="0 0 34 34" version="1.1" xmlns="http://www.w3.org/2000/svg" xmlns:xlink="http://www.w3.org/1999/xlink">
    <!-- Generator: Sketch 51.3 (57544) - http://www.bohemiancoding.com/sketch -->
    <title>Group 13 Copy</title>
    <desc>Created with Sketch.</desc>
    <defs></defs>
    <g id="Page-1" stroke="none" stroke-width="1" fill="none" fill-rule="evenodd">
        <g id="Sign-Up-A-Copy-27" transform="translate(-1052.000000, -467.000000)" fill="#000000" stroke="#000000" stroke-width="0.5">
            <g id="Group-7" transform="translate(1053.000000, 468.000000)">
                <g id="Group-13-Copy">
                    <path d="M27.1615366,0 L4.83774916,0 C2.17066583,0 0,2.17066583 0,4.83774916 L0,27.1615366 C0,29.8293342 2.17066583,32 4.83774916,32 L27.1615366,32 C29.8293342,32 32,29.8293342 32,27.1615366 L32,4.83774916 C32,2.17066583 29.8293342,0 27.1615366,0 Z M31,27.2699233 C31,29.3268024 29.3268024,31 27.2699233,31 L4.72935548,31 C2.67319759,31 1,29.3268024 1,27.2699233 L1,17.3930091 L4.60314446,13.7869798 C5.05894656,14.0913287 5.6056206,14.2687453 6.19196096,14.2687453 C6.77758011,14.2687453 7.32425415,14.0913287 7.78077746,13.7869798 L13.5951391,19.6042263 C13.293675,20.0607496 13.1133736,20.6045388 13.1133736,21.193764 C13.1133736,22.7825805 14.4093805,24.0785874 15.998197,24.0785874 C17.5898983,24.0785874 18.8830204,22.7825805 18.8830204,21.193764 C18.8830204,20.6045388 18.7056038,20.0607496 18.4041397,19.6042263 L26.3857249,11.6233623 L26.3857249,15.4241171 C26.3857249,15.7421689 26.641753,15.998197 26.9634108,15.998197 C27.2814626,15.998197 27.5374907,15.7421689 27.5374907,15.4241171 L27.5374907,9.65447027 L21.7678438,9.65447027 C21.4497921,9.65447027 21.193764,9.91049835 21.193764,10.2285501 C21.193764,10.5502079 21.4497921,10.806236 21.7678438,10.806236 L25.5685987,10.806236 L17.5877347,18.7878212 C17.1312114,18.4863572 16.5874222,18.3089405 15.998197,18.3089405 C15.4125778,18.3089405 14.8687886,18.4863572 14.4122653,18.7878212 L8.59501887,12.9727384 C8.89936774,12.5162151 9.07678438,11.9702623 9.07678438,11.3839219 C9.07678438,9.79222059 7.78077746,8.49909849 6.19196096,8.49909849 C4.60025963,8.49909849 3.30713753,9.79222059 3.30713753,11.3839219 C3.30713753,11.9702623 3.48455417,12.5162151 3.78601822,12.9727384 L1,15.7616415 L1,4.72935548 C1,2.67319759 2.67319759,1 4.72935548,1 L27.2699233,1 C29.3268024,1 31,2.67319759 31,4.72935548 L31,27.2699233 Z" id="Fill-1"></path>
                </g>
            </g>
        </g>
    </g>
</svg>