<?xml version="1.0" encoding="UTF-8"?>
<svg width="91px" height="91px" viewBox="0 0 91 91" version="1.1" xmlns="http://www.w3.org/2000/svg" xmlns:xlink="http://www.w3.org/1999/xlink">
    <!-- Generator: Sketch 50.2 (55047) - http://www.bohemiancoding.com/sketch -->
    <title>Group 4</title>
    <desc>Created with Sketch.</desc>
    <defs></defs>
    <g id="Page-1" stroke="none" stroke-width="1" fill="none" fill-rule="evenodd">
        <g id="Sign-Up-A-Copy-15" transform="translate(-424.000000, -403.000000)" fill="#FFFFFF">
            <g id="Group-3" transform="translate(284.000000, 253.000000)">
                <g id="Group-4" transform="translate(140.000000, 150.000000)">
                    <g id="Group">
                        <path d="M86.0738275,87.9663822 L4.92475063,87.9663822 L44.5891842,57.1545524 C45.1193751,56.7361347 45.8671168,56.7361347 46.39713,57.1545524 L86.0738275,87.9663822 Z M16.6820862,39.4293873 C17.519763,39.4293873 18.1987203,38.7503916 18.1987203,37.9126673 L18.1987203,10.610641 C18.1987203,9.77291673 18.8778553,9.09392103 19.7155321,9.09392103 L71.283046,9.09392103 C72.1207228,9.09392103 72.7996801,9.77291673 72.7996801,10.610641 L72.7996801,37.9126673 C72.7996801,38.7503916 73.4788151,39.4293873 74.3164919,39.4293873 C75.1541687,39.4293873 75.833126,38.7503916 75.833126,37.9126673 L75.833126,26.192526 L86.5030635,34.4832058 L61.2076404,54.1269781 C60.5459237,54.6410241 60.4261286,55.5941065 60.9399677,56.2558607 C61.4538068,56.9176149 62.4068353,57.0374168 63.0687297,56.5235486 L87.9667318,37.1892347 L87.9667318,85.5971849 L48.2626628,54.7595817 C46.6376089,53.4943745 44.3609692,53.4943745 42.7359153,54.7595817 L3.03184626,85.5971849 L3.03184626,37.1892347 L27.8859472,56.490132 C28.5480194,57.0036448 29.5010479,56.8831319 30.0145315,56.2210222 C30.5280151,55.5587348 30.4075091,54.6056523 29.7454369,54.0921396 L4.49551457,34.4832058 L15.1654521,26.192526 L15.1654521,37.9126673 C15.1654521,38.7503916 15.8444094,39.4293873 16.6820862,39.4293873 Z M44.5891842,3.34378723 C45.1190197,2.92288099 45.8688942,2.92288099 46.3987297,3.34378723 L49.8976701,6.0603033 L41.100908,6.0603033 L44.5891842,3.34378723 Z M90.9196627,34.480184 C90.8986896,34.3904215 90.8697184,34.3026142 90.8332822,34.2178286 C90.7899143,34.137309 90.7390814,34.061233 90.6814944,33.9903118 C90.6215969,33.9032154 90.552457,33.8228735 90.4753189,33.7505303 C90.4509689,33.7293783 90.4404824,33.7005832 90.4147104,33.6808532 L75.833126,22.3519343 L75.833126,10.610641 C75.833126,8.09746816 73.7960765,6.0603033 71.283046,6.0603033 L54.846593,6.0603033 L48.2656844,0.950238493 C46.639564,-0.316746164 44.360436,-0.316746164 42.7343156,0.950238493 L36.1519851,6.0603033 L19.7155321,6.0603033 C17.2025016,6.0603033 15.1654521,8.09746816 15.1654521,10.610641 L15.1654521,22.3519343 L0.585467323,33.6808532 C0.559695385,33.7005832 0.549031135,33.7293783 0.524858835,33.7505303 C0.447720761,33.8228735 0.378580873,33.9032154 0.318505599,33.9903118 C0.260918649,34.061233 0.210085724,34.137309 0.166895512,34.2178286 C0.130103849,34.3024365 0.101132637,34.3902438 0.0803373497,34.480184 C0.0487000748,34.5788339 0.0279047874,34.6805056 0.0181292249,34.7835991 C0.0181292249,34.8138162 0,34.8411894 0,34.8730062 L0,86.4496622 C0.00604307498,86.9379348 0.0915348121,87.4221191 0.253275936,87.8830186 C-0.0949118246,88.4080849 -0.0785599747,89.094546 0.293977824,89.6025485 C0.666515622,90.1105511 1.31632392,90.3323801 1.92169784,90.1581874 C2.68810194,90.7058277 3.60664934,91.0001777 4.54865808,90.9999999 L86.44992,90.9999999 C87.395839,90.9980447 88.3174079,90.699251 89.084523,90.1459229 C89.2139159,90.1857383 89.3481077,90.2076013 89.4833659,90.2111562 C90.0373737,90.2143557 90.5481913,89.9125403 90.8126647,89.4256897 C91.0771381,88.9388391 91.0524326,88.346051 90.7483237,87.8830186 C90.9095316,87.4219414 90.9944901,86.9379348 91,86.4496622 L91,34.8790496 C91,34.8472328 90.9834704,34.8198596 90.9818708,34.7896426 C90.9724507,34.6845937 90.9516554,34.5807892 90.9196627,34.480184 Z" id="Fill-1"></path>
                        <path d="M30.5453969,20 L61.4546031,20 C62.3081664,20 63,19.328353 63,18.5000879 C63,17.671647 62.3081664,17 61.4546031,17 L30.5453969,17 C29.6918336,17 29,17.671647 29,18.5000879 C29,19.328353 29.6918336,20 30.5453969,20" id="Fill-4"></path>
                        <path d="M30.5453969,29 L61.4546031,29 C62.3081664,29 63,28.328353 63,27.5000879 C63,26.671647 62.3081664,26 61.4546031,26 L30.5453969,26 C29.6918336,26 29,26.671647 29,27.5000879 C29,28.328353 29.6918336,29 30.5453969,29" id="Fill-5"></path>
                        <path d="M61.4546113,35 L47.5455698,35 C46.692011,35 46,35.671647 46,36.5000879 C46,37.328353 46.692011,38 47.5455698,38 L61.4546113,38 C62.3081701,38 63,37.328353 63,36.5000879 C63,35.671647 62.3081701,35 61.4546113,35" id="Fill-6"></path>
                    </g>
                </g>
            </g>
        </g>
    </g>
</svg>