<?xml version="1.0" encoding="UTF-8"?>
<svg width="32px" height="26px" viewBox="0 0 32 26" version="1.1" xmlns="http://www.w3.org/2000/svg" xmlns:xlink="http://www.w3.org/1999/xlink">
    <!-- Generator: Sketch 51.3 (57544) - http://www.bohemiancoding.com/sketch -->
    <title>dashboard dark</title>
    <desc>Created with Sketch.</desc>
    <defs></defs>
    <g id="Symbols" stroke="none" stroke-width="1" fill="none" fill-rule="evenodd">
        <g id="Menu-and-back" transform="translate(-142.000000, -4.000000)" fill="#000000">
            <g id="dashboard-dark" transform="translate(142.000000, 4.000000)">
                <g id="Group" transform="translate(16.000000, 13.000000) scale(-1, -1) translate(-16.000000, -13.000000) ">
                    <path d="M19.6413304,6.3825951 C19.2252014,5.93879079 18.5720454,5.8733468 18.0856226,6.22688804 C16.2532099,7.55915003 7.06212255,14.258407 6.07433661,15.3119769 C4.6418878,16.839983 4.6418878,19.3260709 6.07433661,20.854077 C6.79056102,21.6179821 7.73144366,22 8.67220384,22 C9.61296402,22 10.5537854,21.6179821 11.2700711,20.854077 C12.2577958,19.8004419 18.5383068,9.99664475 19.7873674,8.04207704 C20.1186908,7.52329299 20.0573982,6.82653003 19.6413304,6.3825951 Z M9.53807794,19.0066886 C9.06065624,19.5160675 8.28369022,19.5160675 7.80626851,19.0066886 C7.32878557,18.4974403 7.32872434,17.6689402 7.80602358,17.1596266 C8.18982239,16.7550757 10.7993236,14.7699413 14.0099341,12.3894651 C11.7782922,15.814106 9.91722316,18.597435 9.53807794,19.0066886 Z" id="Shape" fill-rule="nonzero" transform="translate(12.500000, 14.000000) scale(-1, -1) translate(-12.500000, -14.000000) "></path>
                    <path d="M14.6870836,22.2963187 L13.1646661,23.0657124 C12.050693,21.0060319 11.4664521,18.7071137 11.4664521,16.3537682 C11.4664521,14.6295316 11.7733404,12.9781204 12.33341,11.4551119 L14.07787,12.3219894 C14.249905,12.4074634 14.4314975,12.4479645 14.610377,12.4479645 C15.0699387,12.4479645 15.5111253,12.1806187 15.7231785,11.7225854 C16.0176729,11.0863855 15.7586954,10.3231884 15.1445488,10.0180245 L13.4222253,9.16213474 C15.5629208,5.54514117 19.2667303,3.02340289 23.5521292,2.61391987 L23.5521292,4.53555151 C23.5521292,5.24119105 24.1042445,5.81318965 24.7853552,5.81318965 C25.466466,5.81318965 26.0185813,5.24119105 26.0185813,4.53555151 L26.0185813,2.61296164 C27.4878468,2.7515215 28.9095098,3.13915691 30.2590908,3.77031015 C30.8797118,4.06065341 31.6102132,3.77452635 31.8904638,3.13155496 C32.1707145,2.48839192 31.8946568,1.73171073 31.2738508,1.44136747 C29.228792,0.484991437 27.0457353,0 24.7852936,0 C20.5688937,0 16.6048735,1.70104742 13.6233645,4.78986538 C10.6419788,7.87874723 9,11.9855234 9,16.3537682 C9,19.5817209 9.92479622,22.7211334 11.6744357,25.4323454 C11.9101052,25.7974305 12.299743,26 12.7004181,26 C12.8825656,26 13.0670562,25.9581574 13.2403861,25.8705753 L15.7684996,24.5929371 C16.380673,24.283557 16.6348409,23.518699 16.3362152,22.8844794 C16.0375895,22.2503237 15.2992571,21.9870664 14.6870836,22.2963187 Z" id="Path" transform="translate(20.500000, 13.000000) scale(-1, -1) translate(-20.500000, -13.000000) "></path>
                    <path d="M6.52045954,0.747036307 C6.22250563,0.108474915 5.44595016,-0.175696639 4.78558621,0.112724802 C4.12548455,0.401019381 3.8319239,1.15236136 4.12994337,1.79092275 C4.95757853,3.56433086 5.37716635,5.45882903 5.37716635,7.42176941 C5.37716635,9.76199828 4.75384993,12.0483741 3.56577185,14.0958682 L1.87555228,13.3172508 C1.22174542,13.0160797 0.439157424,13.2845838 0.127695928,13.9172461 C-0.183699998,14.5497815 0.0939925153,15.3068323 0.747930516,15.6080668 L3.50190585,16.8766898 C3.68307809,16.9601018 3.87513508,17 4.06502824,17 C4.49123871,17 4.90564643,16.7986061 5.15593033,16.4363508 C7.01656852,13.7442059 8,10.6269454 8,7.42176941 C8,5.09644687 7.50218617,2.85073041 6.52045954,0.747036307 Z" id="Path" transform="translate(4.000000, 8.500000) scale(-1, -1) translate(-4.000000, -8.500000) "></path>
                </g>
            </g>
        </g>
    </g>
</svg>