<?xml version="1.0" encoding="UTF-8"?>
<svg width="35px" height="27px" viewBox="0 0 35 27" version="1.1" xmlns="http://www.w3.org/2000/svg" xmlns:xlink="http://www.w3.org/1999/xlink">
    <!-- Generator: Sketch 51.3 (57544) - http://www.bohemiancoding.com/sketch -->
    <title>dashboard</title>
    <desc>Created with Sketch.</desc>
    <defs></defs>
    <g id="Symbols" stroke="none" stroke-width="1" fill="none" fill-rule="evenodd">
        <g id="Menu-and-back-for-dark" transform="translate(-140.000000, -3.000000)" fill="#FFFFFF" fill-rule="nonzero">
            <g id="dashboard" transform="translate(140.000000, 3.000000)">
                <path d="M28.6174191,5.3825951 C28.1735481,4.93879079 27.4768484,4.8733468 26.9579975,5.22688804 C25.0034239,6.55915003 15.1995974,13.258407 14.1459591,14.3119769 C12.6180136,15.839983 12.6180136,18.3260709 14.1459591,19.854077 C14.9099318,20.6179821 15.9135399,21 16.9170174,21 C17.920495,21 18.9240378,20.6179821 19.6880758,19.854077 C20.7416488,18.8004419 27.4408606,8.99664475 28.7731919,7.04207704 C29.1266036,6.52329299 29.0612247,5.82653003 28.6174191,5.3825951 Z M17.8406165,18.0066886 C17.3313667,18.5160675 16.5026029,18.5160675 15.9933531,18.0066886 C15.4840379,17.4974403 15.4839726,16.6689402 15.9930918,16.1596266 C16.4024772,15.7550757 19.1859452,13.7699413 22.6105963,11.3894651 C20.2301784,14.814106 18.245038,17.597435 17.8406165,18.0066886 Z" id="Shape"></path>
                <path d="M6.18161265,23.1538694 L4.52681094,23.9528552 C3.31597061,21.8139562 2.68092622,19.4266181 2.68092622,16.9827593 C2.68092622,15.1922059 3.01450046,13.4772789 3.62327178,11.8956931 L5.51942387,12.795912 C5.70641848,12.8846735 5.90380167,12.9267324 6.09823584,12.9267324 C6.59775942,12.9267324 7.0773101,12.6491041 7.30780273,12.1734541 C7.62790532,11.512785 7.34640807,10.7202341 6.67885744,10.4033332 L4.80676666,9.51452453 C7.13360955,5.75841583 11.1594894,3.13968762 15.8175317,2.71445525 L15.8175317,4.7099958 C15.8175317,5.44277532 16.417657,6.03677387 17.1579948,6.03677387 C17.8983326,6.03677387 18.4984579,5.44277532 18.4984579,4.7099958 L18.4984579,2.71346016 C20.0954857,2.85734924 21.6407715,3.25989371 23.1077073,3.91532208 C23.7822954,4.21683239 24.5763187,3.91970044 24.880939,3.25199938 C25.1855592,2.5840993 24.8854965,1.79831499 24.2107074,1.49680468 C21.9878174,0.503644954 19.6149296,0 17.1579278,0 C12.5748844,0 8.26616683,1.76647232 5.02539619,4.97409097 C1.78475961,8.18177597 0,12.446505 0,16.9827593 C0,20.334864 1.00521328,23.5950231 2.90699532,26.4105125 C3.16315782,26.7896393 3.58667714,27 4.0221936,27 C4.22018,27 4.42071329,26.956548 4.60911537,26.8655974 L7.35706475,25.5388193 C8.02247063,25.21754 8.29874008,24.4232643 7.97414694,23.7646517 C7.6495538,23.1061054 6.84701853,22.8327228 6.18161265,23.1538694 Z" id="Shape"></path>
                <path d="M33.5204595,10.7470363 C33.2225056,10.1084749 32.4459502,9.82430336 31.7855862,10.1127248 C31.1254846,10.4010194 30.8319239,11.1523614 31.1299434,11.7909228 C31.9575785,13.5643309 32.3771663,15.458829 32.3771663,17.4217694 C32.3771663,19.7619983 31.7538499,22.0483741 30.5657719,24.0958682 L28.8755523,23.3172508 C28.2217454,23.0160797 27.4391574,23.2845838 27.1276959,23.9172461 C26.8163,24.5497815 27.0939925,25.3068323 27.7479305,25.6080668 L30.5019059,26.8766898 C30.6830781,26.9601018 30.8751351,27 31.0650282,27 C31.4912387,27 31.9056464,26.7986061 32.1559303,26.4363508 C34.0165685,23.7442059 35,20.6269454 35,17.4217694 C35,15.0964469 34.5021862,12.8507304 33.5204595,10.7470363 Z" id="Shape"></path>
            </g>
        </g>
    </g>
</svg>