<?xml version="1.0" encoding="UTF-8"?>
<svg width="48px" height="60px" viewBox="0 0 48 60" version="1.1" xmlns="http://www.w3.org/2000/svg" xmlns:xlink="http://www.w3.org/1999/xlink">
    <!-- Generator: Sketch 51.3 (57544) - http://www.bohemiancoding.com/sketch -->
    <title>delete</title>
    <desc>Created with Sketch.</desc>
    <defs></defs>
    <g id="-Admin" stroke="none" stroke-width="1" fill="none" fill-rule="evenodd">
        <g id="23" transform="translate(-160.000000, -243.000000)" fill="#D80027" fill-rule="nonzero">
            <g id="delete" transform="translate(160.000000, 243.000000)">
                <path d="M32.5,21 C31.6714843,21 31,21.6425689 31,22.4354067 L31,49.5645933 C31,50.3568705 31.6714843,51 32.5,51 C33.3285155,51 34,50.3568705 34,49.5645933 L34,22.4354067 C34,21.6425689 33.3285155,21 32.5,21 Z" id="Shape"></path>
                <path d="M15.5,21 C14.6714843,21 14,21.6425689 14,22.4354067 L14,49.5645933 C14,50.3568705 14.6714843,51 15.5,51 C16.3285155,51 17,50.3568705 17,49.5645933 L17,22.4354067 C17,21.6425689 16.3285155,21 15.5,21 Z" id="Shape"></path>
                <path d="M3.93098468,17.8625785 L3.93098468,52.4824587 C3.93098468,54.5287054 4.67005634,56.4503549 5.96113417,57.8291562 C7.24626478,59.2117998 9.03474291,59.9967066 10.9064813,60 L37.0935188,60 C38.9657979,59.9967066 40.7542759,59.2117998 42.0388659,57.8291562 C43.3299438,56.4503549 44.0690156,54.5287054 44.0690156,52.4824587 L44.0690156,17.8625785 C46.6354922,17.1709822 48.2985388,14.6537914 47.9552246,11.9801682 C47.6113698,9.30709393 45.3682031,7.30750256 42.7125187,7.30695371 L35.6261884,7.30695371 L35.6261884,5.55051883 C35.6342981,4.07346685 35.059044,2.65514568 34.0291013,1.61171362 C32.9991585,0.568830416 31.5999503,-0.0118908649 30.1450547,0.00018462491 L17.8549454,0.00018462491 C16.4000499,-0.0118908649 15.0008416,0.568830416 13.9708989,1.61171362 C12.9409561,2.65514568 12.365702,4.07346685 12.3738119,5.55051883 L12.3738119,7.30695371 L5.2874814,7.30695371 C2.63179703,7.30750256 0.388630441,9.30709393 0.0447754039,11.9801682 C-0.298538738,14.6537914 1.36450791,17.1709822 3.93098468,17.8625785 Z M37.0935188,57.1897042 L10.9064813,57.1897042 C8.54004597,57.1897042 6.69912474,55.1258932 6.69912474,52.4824587 L6.69912474,17.9860778 L41.3008755,17.9860778 L41.3008755,52.4824587 C41.3008755,55.1258932 39.4599541,57.1897042 37.0935188,57.1897042 Z M15.1419519,5.55051883 C15.1327607,4.81885397 15.4160626,4.11463332 15.9275198,3.59813173 C16.4384362,3.08163013 17.1337151,2.79785602 17.8549454,2.81048043 L30.1450547,2.81048043 C30.8662849,2.79785602 31.5615639,3.08163013 32.0724803,3.59813173 C32.5839375,4.11408447 32.8672394,4.81885397 32.8580483,5.55051883 L32.8580483,7.30695371 L15.1419519,7.30695371 L15.1419519,5.55051883 Z M5.2874814,10.1172495 L42.7125187,10.1172495 C44.0884789,10.1172495 45.2038448,11.2496012 45.2038448,12.6465157 C45.2038448,14.0434303 44.0884789,15.175782 42.7125187,15.175782 L5.2874814,15.175782 C3.91152105,15.175782 2.79615535,14.0434303 2.79615535,12.6465157 C2.79615535,11.2496012 3.91152105,10.1172495 5.2874814,10.1172495 Z" id="Shape"></path>
                <path d="M24.5,21 C23.6714843,21 23,21.6425689 23,22.4354067 L23,49.5645933 C23,50.3568705 23.6714843,51 24.5,51 C25.3285155,51 26,50.3568705 26,49.5645933 L26,22.4354067 C26,21.6425689 25.3285155,21 24.5,21 Z" id="Shape"></path>
            </g>
        </g>
    </g>
</svg>