<?xml version="1.0" encoding="UTF-8"?>
<svg width="25px" height="24px" viewBox="0 0 25 24" version="1.1" xmlns="http://www.w3.org/2000/svg" xmlns:xlink="http://www.w3.org/1999/xlink">
    <!-- Generator: Sketch 51.3 (57544) - http://www.bohemiancoding.com/sketch -->
    <title>download</title>
    <desc>Created with Sketch.</desc>
    <defs></defs>
    <g id="Symbols" stroke="none" stroke-width="1" fill="none" fill-rule="evenodd">
        <g id="doc-file-uploaded" transform="translate(-297.000000, -28.000000)" fill="#8AC53F" fill-rule="nonzero">
            <g id="Group-2">
                <g id="download" transform="translate(297.000000, 28.000000)">
                    <path d="M24.2425847,11.2897246 C23.845339,11.2897246 23.5275424,11.6075212 23.5275424,12.0047669 L23.5275424,18.5090042 C23.5275424,20.278072 22.0868644,21.7134534 20.3230932,21.7134534 L4.6345339,21.7134534 C2.8654661,21.7134534 1.43008475,20.2727754 1.43008475,18.5090042 L1.43008475,11.8988347 C1.43008475,11.501589 1.11228814,11.1837924 0.715042373,11.1837924 C0.31779661,11.1837924 0,11.501589 0,11.8988347 L0,18.5090042 C0,21.0672669 2.0815678,23.1435381 4.6345339,23.1435381 L20.3230932,23.1435381 C22.8813559,23.1435381 24.9576271,21.0619703 24.9576271,18.5090042 L24.9576271,12.0047669 C24.9576271,11.6128178 24.6398305,11.2897246 24.2425847,11.2897246 Z" id="Shape"></path>
                    <path d="M11.9756356,17.465572 C12.1133475,17.6032839 12.2987288,17.6774364 12.4788136,17.6774364 C12.6588983,17.6774364 12.8442797,17.6085805 12.9819915,17.465572 L17.5264831,12.9210805 C17.8072034,12.6403602 17.8072034,12.1901483 17.5264831,11.909428 C17.2457627,11.6287076 16.7955508,11.6287076 16.5148305,11.909428 L13.1938559,15.2356992 L13.1938559,0.728283898 C13.1938559,0.331038136 12.8760593,0.0132415254 12.4788136,0.0132415254 C12.0815678,0.0132415254 11.7637712,0.331038136 11.7637712,0.728283898 L11.7637712,15.2356992 L8.4375,11.909428 C8.15677966,11.6287076 7.7065678,11.6287076 7.42584746,11.909428 C7.14512712,12.1901483 7.14512712,12.6403602 7.42584746,12.9210805 L11.9756356,17.465572 Z" id="Shape"></path>
                </g>
            </g>
        </g>
    </g>
</svg>