<?xml version="1.0" encoding="UTF-8"?>
<svg width="23px" height="23px" viewBox="0 0 23 23" version="1.1" xmlns="http://www.w3.org/2000/svg" xmlns:xlink="http://www.w3.org/1999/xlink">
    <!-- Generator: Sketch 51.3 (57544) - http://www.bohemiancoding.com/sketch -->
    <title>Group 3</title>
    <desc>Created with Sketch.</desc>
    <defs></defs>
    <g id="Symbols" stroke="none" stroke-width="1" fill="none" fill-rule="evenodd">
        <g id="doc-file-uploaded" transform="translate(-205.000000, -28.000000)" fill="#FFF">
            <g id="Group-3" transform="translate(205.000000, 28.000000)">
                <path d="M22.0884644,4.95431354 C22.0887765,5.90834352 21.7608783,6.80843542 21.1645693,7.5305441 L21.0115752,7.71595628 L15.2833761,1.98709425 L15.4689541,1.83408238 C16.1916034,1.23776682 17.0957734,0.909955572 18.0450738,0.910142857 C19.1257083,0.909768287 20.1418617,1.3335319 20.9055217,2.0924733 C21.6710543,2.85241356 22.0888389,3.87449044 22.0884644,4.95431354 Z M7.9724271,20.7509949 L7.81793483,20.9055675 L5.30673311,18.3940127 L17.8551263,5.84391747 L20.366328,8.35547226 L7.9724271,20.7509949 Z M2.09560336,15.1876929 L14.4898164,2.79210778 L14.6442463,2.63759762 L17.2053224,5.19915751 L4.65686681,17.7489406 L2.09560336,15.1876929 Z M21.5457127,1.45295733 C20.5790592,0.483944538 19.311848,0.000249713384 18.0425145,0 C16.7731186,0.000249713384 15.505845,0.483944538 14.5392539,1.45295733 L14.539566,1.45264518 L1.12632818,14.8626285 L1.12589123,14.863003 C1.05560505,14.9332974 1.01203511,15.0229445 0.998052777,15.1228298 L0.00443336496,22.4843804 L0.00430852271,22.485192 C0.00137473,22.505606 1.46532934e-06,22.5259577 1.46532934e-06,22.5462469 C-0.000310640278,22.6642989 0.0492517302,22.7814145 0.132271822,22.864132 C0.21566644,22.9485351 0.340134156,23.0009125 0.452242491,22.9999761 C0.482142208,23.0001634 0.499183174,22.999227 0.505300444,22.9979784 L0.50898329,22.9974165 L4.94724987,22.3974177 C5.06266652,22.3817482 5.16048042,22.3256251 5.2313284,22.2444058 C5.30192668,22.1629993 5.34337431,22.0581821 5.34337431,21.9461232 C5.34337431,21.9257091 5.34200104,21.9050453 5.33919209,21.8841318 C5.32346197,21.7687018 5.26728296,21.6708766 5.18607308,21.6000829 C5.10473836,21.5294764 4.99999572,21.4880864 4.88794981,21.4880864 C4.86760052,21.4880864 4.84693913,21.4893974 4.82596563,21.4922691 L4.82584079,21.4922691 L0.986192764,22.009925 L1.77787985,16.1543958 L7.49303289,21.8703976 C7.57642751,21.9547383 7.70045828,22.006866 7.8128163,22.0060544 C7.92979348,22.0063665 8.0492675,21.9578597 8.12997801,21.8733317 L8.1314137,21.871771 L21.5459,8.46072645 C22.4842767,7.52155441 22.9995631,6.28085346 23,4.95431354 C22.9996255,3.62783604 22.4841519,2.38719752 21.5462121,1.45351918 L21.5460872,1.4533319 L21.5457127,1.45295733 Z" id="Fill-1"></path>
            </g>
        </g>
    </g>
</svg>