<?xml version="1.0" encoding="UTF-8"?>
<svg width="39px" height="39px" viewBox="0 0 39 39" version="1.1" xmlns="http://www.w3.org/2000/svg" xmlns:xlink="http://www.w3.org/1999/xlink">
    <!-- Generator: Sketch 51.3 (57544) - http://www.bohemiancoding.com/sketch -->
    <title>stopwatch</title>
    <desc>Created with Sketch.</desc>
    <defs></defs>
    <g id="-Admin" stroke="none" stroke-width="1" fill="none" fill-rule="evenodd">
        <g id="2" transform="translate(-59.000000, -215.000000)" fill="#FFFFFF" fill-rule="nonzero">
            <g id="Group-4" transform="translate(59.000000, 211.000000)">
                <g id="stopwatch" transform="translate(0.000000, 4.000000)">
                    <path d="M33.3666667,24.5733333 L33.3666667,23 L34.0166667,23 C34.3761167,23 34.6666667,22.702 34.6666667,22.3333333 C34.6666667,21.9646667 34.3761167,21.6666667 34.0166667,21.6666667 L33.3666667,21.6666667 L32.7166667,21.6666667 L23.6166667,21.6666667 L22.9666667,21.6666667 L22.3166667,21.6666667 C21.9572167,21.6666667 21.6666667,21.9646667 21.6666667,22.3333333 C21.6666667,22.702 21.9572167,23 22.3166667,23 L22.9666667,23 L22.9666667,24.5733333 C22.9666667,26.93 24.1659167,29.072 26.1042167,30.3333333 C24.1659167,31.5946667 22.9666667,33.7366667 22.9666667,36.0933333 L22.9666667,37.6666667 L22.3166667,37.6666667 C21.9572167,37.6666667 21.6666667,37.9646667 21.6666667,38.3333333 C21.6666667,38.702 21.9572167,39 22.3166667,39 L22.9666667,39 L23.6166667,39 L32.7166667,39 L33.3666667,39 L34.0166667,39 C34.3761167,39 34.6666667,38.702 34.6666667,38.3333333 C34.6666667,37.9646667 34.3761167,37.6666667 34.0166667,37.6666667 L33.3666667,37.6666667 L33.3666667,36.0933333 C33.3666667,33.7366667 32.1674167,31.5946667 30.2291167,30.3333333 C32.1674167,29.072 33.3666667,26.93 33.3666667,24.5733333 Z M32.0666667,36.0933333 L32.0666667,37.6666667 L24.2666667,37.6666667 L24.2666667,36.0933333 C24.2666667,33.8806667 25.5881167,31.8946667 27.6447167,31 L28.6879667,31 C30.7452167,31.8946667 32.0666667,33.88 32.0666667,36.0933333 Z M28.6886167,29.6666667 L27.6453667,29.6666667 C25.5881167,28.772 24.2666667,26.7866667 24.2666667,24.5733333 L24.2666667,23 L32.0666667,23 L32.0666667,24.5733333 C32.0666667,26.7866667 30.7452167,28.772 28.6886167,29.6666667 Z" id="Shape"></path>
                    <path d="M21.5779624,18.3423233 L13.1644272,12.2557051 C12.9070292,12.0697847 12.5501819,12.0983878 12.3239837,12.3233125 C12.0977854,12.5495374 12.0698356,12.9057765 12.2563842,13.1638548 L18.3435873,21.5803287 C18.7426842,22.1289889 19.3595295,22.4741768 20.0361743,22.5268326 C20.0979238,22.530733 20.1583733,22.5333333 20.2181729,22.5333333 C20.8298182,22.5333333 21.4187136,22.2915068 21.8548603,21.8546588 C22.3339066,21.3755562 22.5789547,20.7131335 22.5263051,20.0364092 C22.4736555,19.3596849 22.1285082,18.7427672 21.5779624,18.3423233 Z M20.9357674,20.9354579 C20.725169,21.146081 20.4333212,21.2481423 20.1382235,21.2299403 C19.8411758,21.2071878 19.5701279,21.0550711 19.3959292,20.8158448 L15.6825078,15.6822313 L20.8142183,19.3947888 C21.0553664,19.5703081 21.2068153,19.8413878 21.2302151,20.1384704 C21.2536149,20.4342529 21.1457157,20.7254849 20.9357674,20.9354579 Z" id="Shape"></path>
                    <path d="M19.7096774,0 C19.3540925,0 19.0666667,0.28970425 19.0666667,0.648107943 L19.0666667,9.26211061 C19.0666667,9.62051431 19.3540925,9.91021856 19.7096774,9.91021856 C20.0652624,9.91021856 20.3526882,9.62051431 20.3526882,9.26211061 L20.3526882,1.30788183 C29.9843462,1.65008282 37.7139785,9.65421592 37.7139785,19.4432383 C37.7139785,21.6908766 37.3063097,23.8912031 36.5031892,25.9852399 C36.3752301,26.3190155 36.5398409,26.69427 36.8709914,26.8232434 C36.9468667,26.8530564 37.025314,26.8666667 37.1024753,26.8666667 C37.3596796,26.8666667 37.6033806,26.7091764 37.7024043,26.4518776 C38.5633957,24.2094241 39,21.8509593 39,19.4432383 C39,8.7222367 30.3463613,0 19.7096774,0 Z" id="Shape"></path>
                    <path d="M15.1058973,36.8516656 C6.97680195,34.8354787 1.29982337,27.5638034 1.29982337,19.1685545 C1.29982337,14.3151326 3.18456726,9.74862206 6.6070022,6.30958876 C6.86111767,6.0545564 6.85981785,5.64338178 6.60570238,5.3896506 C6.350937,5.13526884 5.94019281,5.13787121 5.68672725,5.39095179 C2.01927561,9.07590915 0,13.9690173 0,19.1685545 C0,28.1629994 6.08317338,35.9538476 14.7939397,38.1144661 C14.8459326,38.127478 14.8985755,38.1333333 14.9505684,38.1333333 C15.2417289,38.1333333 15.5068928,37.9349025 15.5809828,37.6388828 C15.6667711,37.2901651 15.45425,36.9381944 15.1058973,36.8516656 Z" id="Shape"></path>
                </g>
            </g>
        </g>
    </g>
</svg>