<?xml version="1.0" encoding="utf-8"?>
<!-- Generator: Adobe Illustrator 23.0.1, SVG Export Plug-In . SVG Version: 6.00 Build 0)  -->
<svg version="1.1" id="Layer_1" xmlns="http://www.w3.org/2000/svg" xmlns:xlink="http://www.w3.org/1999/xlink" x="0px" y="0px"
	 viewBox="0 0 28 28" style="enable-background:new 0 0 28 28;" xml:space="preserve">
<style type="text/css">
	.st0{fill:#E37B59;}
</style>
<g>
	<path class="st0" d="M5.2,7.6l3.6,4.2c0.4-0.4,0.9-0.8,1.4-1.1L9.2,8C9,7.5,9.2,7,9.6,6.7c0.4-0.2,0.9,0,1.1,0.4c0,0,0,0.1,0,0.1
		l1.1,2.8c0.8-0.3,1.6-0.4,2.4-0.4c2,0,4,0.8,5.4,2.2l3.6-4.2c-2.3-2.5-5.6-3.9-9-4C10.8,3.6,7.6,5,5.2,7.6z"/>
	<path class="st0" d="M22.5,0h-17C2.5,0,0,2.5,0,5.5v17c0,3,2.5,5.5,5.5,5.5h17c3,0,5.5-2.5,5.5-5.5v-17C28,2.5,25.5,0,22.5,0z
		 M24.4,8.2L19.9,13c-0.1,0.2-0.3,0.2-0.6,0.2c-0.2,0-0.4-0.1-0.6-0.2c-2.3-2.5-6.2-2.6-8.7-0.3C10,12.8,9.9,12.9,9.8,13
		c-0.3,0.3-0.8,0.3-1.1,0c0,0,0,0,0,0L4.1,8.2C3.8,7.9,3.8,7.3,4.1,7C9.2,1.4,18,1,23.6,6.2c0.3,0.3,0.6,0.5,0.8,0.8
		C24.7,7.3,24.7,7.8,24.4,8.2z"/>
</g>
</svg>
