<?xml version="1.0" encoding="UTF-8"?>
<svg width="35px" height="20px" viewBox="0 0 35 20" version="1.1" xmlns="http://www.w3.org/2000/svg" xmlns:xlink="http://www.w3.org/1999/xlink">
    <!-- Generator: Sketch 51.3 (57544) - http://www.bohemiancoding.com/sketch -->
    <title>Group</title>
    <desc>Created with Sketch.</desc>
    <defs></defs>
    <g id="Symbols" stroke="none" stroke-width="1" fill="none" fill-rule="evenodd">
        <g id="doc-file-uploaded" transform="translate(-245.000000, -31.000000)">
            <g id="Group-2">
                <g id="Group" transform="translate(245.000000, 31.000000)">
                    <path d="M30.1881374,5.25852139 C23.1613843,-1.75284046 11.7233261,-1.75284046 4.69435588,5.25852139 L0,9.94111739 L4.81260162,14.7416629 C8.32597817,18.2462381 12.9419962,20 17.5580143,20 C22.1769885,20 26.7930066,18.2462381 30.3063832,14.7416629 L35,10.0590669 L30.1881374,5.25852139 Z M29.4690555,13.9064329 C22.9012437,20.4577916 12.2140459,20.4577916 5.64697312,13.9064329 L1.67169915,9.94111739 L5.53094449,6.09375144 C12.0987563,-0.456870099 22.7859541,-0.456870099 29.3537659,6.09375144 L33.3290399,10.0590669 L29.4690555,13.9064329 Z" id="Fill-1" fill="#8AC53F"></path>
                    <path d="M17.3771491,5 C14.9631135,5 13,6.96280669 13,9.37724644 C13,9.72183154 13.2805564,10 13.6259769,10 C13.9706158,10 14.2511722,9.72183154 14.2511722,9.37724644 C14.2511722,7.65275824 15.6523914,6.25175809 17.3771491,6.25175809 C17.7225696,6.25175809 18,5.97046414 18,5.62587904 C18,5.28129395 17.7225696,5 17.3771491,5 Z" id="Fill-3"></path>
                    <path d="M17.4981972,2 C13.3632998,2 10,5.36329984 10,9.49891832 C10,13.6338157 13.3632998,17 17.4981972,17 C21.6338157,17 25,13.6338157 25,9.49891832 C25,5.36329984 21.6367002,2 17.4981972,2 Z M17.4981972,15.8447671 C14.0000481,15.8447671 11.1545118,12.9999519 11.1545118,9.49891832 C11.1545118,6.00004807 14.0000481,3.15523292 17.4981972,3.15523292 C20.9970674,3.15523292 23.8447671,6.00004807 23.8447671,9.49891832 C23.8447671,12.9999519 20.9999519,15.8447671 17.4981972,15.8447671 Z" id="Fill-4" fill="#8AC53F"></path>
                </g>
            </g>
        </g>
    </g>
</svg>