<?xml version="1.0" encoding="UTF-8"?>
<svg width="34px" height="33px" viewBox="0 0 34 33" version="1.1" xmlns="http://www.w3.org/2000/svg" xmlns:xlink="http://www.w3.org/1999/xlink">
    <!-- Generator: Sketch 51.3 (57544) - http://www.bohemiancoding.com/sketch -->
    <title>menu-dark copy</title>
    <desc>Created with Sketch.</desc>
    <defs></defs>
    <g id="Symbols" stroke="none" stroke-width="1" fill="none" fill-rule="evenodd">
        <g id="Menu-and-back-for-dark" transform="translate(-282.000000, 0.000000)" fill="#FFFFFF" fill-rule="nonzero">
            <g id="menu-dark-copy" transform="translate(282.000000, 0.000000)">
                <g id="Group-3">
                    <g id="Fill-1-Clipped">
                        <path d="M16.5531835,0 C7.46395413,0 0.0694311927,7.4099633 0.0694311927,16.5004037 C0.0694311927,25.5904404 7.46314679,33 16.5531835,33 L16.5543945,33 C25.6433211,33 33.0382477,25.589633 33.0382477,16.4995963 C33.0382477,7.40915596 25.6429174,0 16.5531835,0 Z M16.5535872,30.9859908 L16.5531835,30.9859908 C8.57444954,30.9859908 2.08344037,24.4787339 2.08344037,16.4995963 C2.08344037,8.52005505 8.57444954,2.02188073 16.5543945,2.02188073 C24.5339358,2.02188073 31.0234312,8.52479817 31.0234312,16.5043394 C31.0234312,24.4838807 24.532422,30.9859908 16.5535872,30.9859908 Z" id="Fill-1"></path>
                    </g>
                </g>
                <path d="M23.0268267,15 L13.9735636,15 C13.4358599,15 13,15.4477732 13,16.0000501 C13,16.5522268 13.4358599,17 13.9735636,17 L23.0268267,17 C23.5645303,17 24,16.5522268 24,16.0000501 C24,15.4477732 23.5645303,15 23.0268267,15 Z" id="Fill-4"></path>
                <path d="M23.0268267,10 L13.9735636,10 C13.4358599,10 13,10.4478629 13,11.0001503 C13,11.552538 13.4358599,12 13.9735636,12 L23.0268267,12 C23.5645303,12 24,11.552538 24,11.0001503 C24,10.4478629 23.5645303,10 23.0268267,10 Z" id="Fill-5"></path>
                <path d="M23.0268267,20 L13.9735636,20 C13.4358599,20 13,20.4473618 13,20.9997495 C13,21.5521371 13.4358599,22 13.9735636,22 L23.0268267,22 C23.5645303,22 24,21.5521371 24,20.9997495 C24,20.4473618 23.5645303,20 23.0268267,20 Z" id="Fill-6"></path>
                <path d="M10.9742536,15 L9.0254381,15 C8.45891361,15 8,15.4477732 8,16.0000501 C8,16.5522268 8.45891361,17 9.0254381,17 L10.9742536,17 C11.5406753,17 12,16.5522268 12,16.0000501 C12,15.4477732 11.5406753,15 10.9742536,15 Z" id="Fill-7"></path>
                <path d="M10.9742536,10 L9.0254381,10 C8.45891361,10 8,10.4478629 8,11.0001503 C8,11.552538 8.45891361,12 9.0254381,12 L10.9742536,12 C11.5406753,12 12,11.552538 12,11.0001503 C12,10.4478629 11.5406753,10 10.9742536,10 Z" id="Fill-8"></path>
                <path d="M10.9742536,20 L9.0254381,20 C8.45891361,20 8,20.4473618 8,20.9997495 C8,21.5521371 8.45891361,22 9.0254381,22 L10.9742536,22 C11.5406753,22 12,21.5521371 12,20.9997495 C12,20.4473618 11.5406753,20 10.9742536,20 Z" id="Fill-9"></path>
            </g>
        </g>
    </g>
</svg>