<?xml version="1.0" encoding="UTF-8"?>
<svg width="239px" height="64px" viewBox="0 0 239 64" version="1.1" xmlns="http://www.w3.org/2000/svg" xmlns:xlink="http://www.w3.org/1999/xlink">
    <!-- Generator: Sketch 51.3 (57544) - http://www.bohemiancoding.com/sketch -->
    <title>Messages CTA</title>
    <desc>Created with Sketch.</desc>
    <defs>
        <circle id="path-1" cx="133" cy="37.4" r="26.6"></circle>
        <filter x="-53.6%" y="-53.6%" width="207.1%" height="207.1%" filterUnits="objectBoundingBox" id="filter-2">
            <feGaussianBlur stdDeviation="9.5" in="SourceGraphic"></feGaussianBlur>
        </filter>
    </defs>
    <g id="Messages-CTA" stroke="none" stroke-width="1" fill="none" fill-rule="evenodd">
        <g id="Group-5">
            <g id="Oval-7-image-shadow" opacity="0.339341518" filter="url(#filter-2)">
                <use fill="#8AC53F" xlink:href="#path-1"></use>
                <use fill-opacity="0.1" fill="#000000" xlink:href="#path-1"></use>
            </g>
            <circle id="Oval-7" fill="#8AC53F" cx="211" cy="28" r="28"></circle>
            <circle id="Oval-7-Copy" fill="#8AC53F" cx="28" cy="28" r="28"></circle>
            <rect id="Rectangle" fill="#8AC53F" x="28" y="0" width="182" height="56"></rect>
            <text id="Messages" font-family="Montserrat-Regular, Montserrat" font-size="17" font-weight="normal" letter-spacing="0.205" fill="#FFFFFF">
                <tspan x="30" y="33">Messages</tspan>
            </text>
            <path d="M201.5,42 C198.844771,42 196.284794,41.2326527 194.079585,39.7783116 L189.439641,41.2202602 C189.252699,41.2782018 189.04875,41.2280384 188.910257,41.0894795 C188.771962,40.9509206 188.721469,40.747301 188.779674,40.5600949 L190.221359,35.9200858 C188.767084,33.7149428 188,31.1552287 188,28.5 C188,24.894107 189.404375,21.5036987 191.954004,18.9540041 C194.503699,16.4043755 197.894107,15 201.5,15 C205.105893,15 208.496038,16.4043755 211.04593,18.9540041 C213.595625,21.5036987 215,24.894107 215,28.5 C215,32.105893 213.595625,35.4960376 211.04593,38.04593 C208.496038,40.5956245 205.105893,42 201.5,42 Z M194.164618,38.6724113 C194.269889,38.6724113 194.374171,38.7041177 194.463028,38.7650915 C196.53917,40.1913516 198.972717,40.9453176 201.5,40.9453176 C208.362357,40.9453176 213.945318,35.3623566 213.945318,28.5 C213.945318,21.6375775 208.362357,16.0546824 201.5,16.0546824 C194.637577,16.0546824 189.054682,21.6375775 189.054682,28.5 C189.054682,31.0272826 189.808385,33.4605666 191.234579,35.5369725 C191.326007,35.6697965 191.351517,35.8376888 191.303595,35.9919361 L190.084118,39.9153544 L194.008064,38.6963394 C194.059282,38.6803873 194.112082,38.6724113 194.164618,38.6724113 Z" id="Fill-1" stroke="#FFFFFF" stroke-width="0.4" fill="#FFFFFF"></path>
        </g>
        <path d="M194.164618,38.6724113 C194.269889,38.6724113 194.374171,38.7041177 194.463028,38.7650915 C196.53917,40.1913516 198.972717,40.9453176 201.5,40.9453176 C208.362357,40.9453176 213.945318,35.3623566 213.945318,28.5 C213.945318,21.6375775 208.362357,16.0546824 201.5,16.0546824 C194.637577,16.0546824 189.054682,21.6375775 189.054682,28.5 C189.054682,31.0272826 189.808385,33.4605666 191.234579,35.5369725 C191.326007,35.6697965 191.351517,35.8376888 191.303595,35.9919361 L190.084118,39.9153544 L194.008064,38.6963394 C194.059282,38.6803873 194.112082,38.6724113 194.164618,38.6724113 Z" id="Path" fill="#E8634A"></path>
        <text id="3" font-family="Montserrat-Regular, Montserrat" font-size="15" font-weight="normal" letter-spacing="0.1808824" fill="#FFFFFF">
            <tspan x="197" y="34">3</tspan>
        </text>
    </g>
</svg>