<?xml version="1.0" encoding="UTF-8"?>
<svg width="85px" height="109px" viewBox="0 0 85 109" version="1.1" xmlns="http://www.w3.org/2000/svg" xmlns:xlink="http://www.w3.org/1999/xlink">
    <!-- Generator: Sketch 50.2 (55047) - http://www.bohemiancoding.com/sketch -->
    <title>Shape Copy</title>
    <desc>Created with Sketch.</desc>
    <defs></defs>
    <g id="Page-1" stroke="none" stroke-width="1" fill="none" fill-rule="evenodd">
        <g id="Sign-Up-A-Copy-14" transform="translate(-429.000000, -407.000000)" fill="#FFFFFF" fill-rule="nonzero">
            <g id="Group-2" transform="translate(284.000000, 253.000000)">
                <path d="M222.559771,205.346696 C220.503328,202.291272 220.082908,198.408759 221.437088,194.978889 C226.024049,183.383741 226.152356,173.855694 221.725778,166.620838 C214.187764,154.508914 196.866371,153.830646 189.777431,154.024437 C188.269828,154.024437 186.569765,154.024437 185.222546,154.024437 C178.165682,153.830646 160.748059,154.508914 153.242122,166.620838 C148.815544,173.823395 148.943851,183.286845 153.466659,194.849695 C154.874227,198.285775 154.4767,202.203622 152.408129,205.282099 C141.49357,221.312158 142.747533,242.750362 155.455411,257.379521 C158.573375,260.933361 163.063488,262.958465 167.772846,262.934857 L181.212964,262.934857 C182.293606,262.934857 183.16964,262.052766 183.16964,260.964651 L183.16964,254.504958 C181.598308,253.425728 180.651631,251.639942 180.635584,249.724785 L180.635584,233.252569 C180.622064,232.515718 181.136102,231.875538 181.854497,231.734541 C182.273857,231.658249 182.705266,231.772443 183.03315,232.04653 C183.361034,232.320618 183.55188,232.726585 183.55456,233.155673 L183.55456,242.102348 C183.605586,242.754712 184.15594,243.252035 184.805549,243.232794 C185.449297,243.236212 185.990521,242.747138 186.056539,242.102348 L186.056539,233.317166 C186.043019,232.580315 186.557057,231.940135 187.275452,231.799138 C187.691784,231.721564 188.120709,231.83629 188.443927,232.111674 C188.767145,232.387057 188.950506,232.794002 188.943438,233.22027 L188.943438,242.166945 C188.994464,242.819309 189.544818,243.316632 190.194427,243.297391 C190.838174,243.300809 191.379399,242.811735 191.445417,242.166945 L191.445417,233.317166 C191.431897,232.580315 191.945935,231.940135 192.664329,231.799138 C193.080661,231.721564 193.509587,231.83629 193.832805,232.111674 C194.156022,232.387057 194.339384,232.794002 194.332315,233.22027 L194.332315,249.789382 C194.307416,251.718111 193.334092,253.508827 191.734107,254.569555 L191.734107,261.029248 C191.725506,261.548786 191.924472,262.050039 192.286341,262.420483 C192.64821,262.790927 193.142664,262.999526 193.658706,262.999454 L207.195054,262.999454 C211.939655,263.038467 216.463638,260.985057 219.576642,257.379521 C232.269847,242.72483 233.497285,221.275529 222.559771,205.249801 M189.329077,228 C189.329077,228 192.795775,217.612452 206.983558,206.208386 C199.077721,210.897696 192.462569,217.44425 187.724124,225.268107 C187.696649,224.752104 187.542394,224.250524 187.274737,223.806861 C182.62276,216.586401 176.322812,210.547633 168.881978,206.17662 C183.069761,217.580686 186.536459,227.968234 186.536459,227.968234 C186.536459,227.968234 164.06712,228.635324 165.030091,203 C165.030091,203 185.380893,205.986023 187.980917,221.614994 C190.613039,205.986023 210.963841,203 210.963841,203 C212.02311,228.635324 189.457473,227.968234 189.457473,227.968234 M198.765138,188.506184 C191.358699,186.468242 183.551473,186.468242 176.145033,188.506184 C172.556954,189.631069 168.651288,188.805676 165.803333,186.320649 C162.955378,183.835622 161.564538,180.039469 162.120569,176.268922 C162.332979,175.109474 162.748906,173.998221 163.348517,172.988155 C166.579961,167.443658 176.500492,165.770467 184.64373,166.032929 C186.485653,166.032929 188.327575,166.032929 190.201813,166.032929 C198.312736,165.73766 208.233267,167.378043 211.658597,172.988155 C212.24523,174.004581 212.660273,175.11347 212.886546,176.268922 C213.424196,180.034947 212.028005,183.818624 209.185423,186.298963 C206.342842,188.779301 202.44852,189.611941 198.862081,188.506184" id="Shape-Copy"></path>
            </g>
        </g>
    </g>
</svg>