<?xml version="1.0" encoding="UTF-8"?>
<svg width="20px" height="20px" viewBox="0 0 20 20" version="1.1" xmlns="http://www.w3.org/2000/svg" xmlns:xlink="http://www.w3.org/1999/xlink">
    <!-- Generator: Sketch 52.2 (67145) - http://www.bohemiancoding.com/sketch -->
    <title>key</title>
    <desc>Created with Sketch.</desc>
    <g id="Page-1" stroke="none" stroke-width="1" fill="none" fill-rule="evenodd">
        <g id="Sign-Up-A-Copy" transform="translate(-304.000000, -493.000000)" fill="#000000">
            <path d="M318.13894,493 C314.906025,493 312.275725,495.630286 312.275725,498.863184 C312.275725,499.964093 312.587378,500.991293 313.117576,501.873658 L304.202057,510.78956 C303.932648,511.058968 303.932648,511.494763 304.202057,511.764171 C304.336546,511.89909 304.513279,511.966335 304.690443,511.966335 C304.865451,511.966335 305.042184,511.89909 305.176673,511.764171 L306.414665,510.528342 L308.684171,512.798267 C308.819091,512.932756 308.995824,513 309.172557,513 C309.34929,513 309.524298,512.932756 309.660943,512.798267 C309.928628,512.528859 309.928628,512.092633 309.660943,511.823225 L307.389281,509.551575 L308.138886,508.804129 L309.719997,510.385232 C309.854486,510.520152 310.029495,510.587396 310.206228,510.587396 C310.383391,510.587396 310.560124,510.520152 310.694613,510.385232 C310.964023,510.115824 310.964023,509.679598 310.694613,509.41019 L309.113502,507.827363 L309.863108,507.079917 L312.132614,509.349843 C312.267535,509.484331 312.444267,509.551575 312.621,509.551575 C312.797733,509.551575 312.972741,509.484331 313.109386,509.349843 C313.377071,509.080435 313.377071,508.644209 313.109386,508.374801 L310.837724,506.103151 L313.966324,502.974999 C315.0306,504.054356 316.507395,504.724212 318.13894,504.724212 C321.371855,504.724212 324,502.094358 324,498.863184 C324,495.630286 321.371855,493 318.13894,493 Z M318.13894,503.345274 C315.666837,503.345274 313.654671,501.334842 313.654671,498.863184 C313.654671,496.391094 315.666837,494.378939 318.13894,494.378939 C320.610612,494.378939 322.621054,496.391094 322.621054,498.863184 C322.621054,501.334842 320.610612,503.345274 318.13894,503.345274 Z" id="key"></path>
        </g>
    </g>
</svg>