<?xml version="1.0" encoding="UTF-8"?>
<svg width="20px" height="20px" viewBox="0 0 20 20" version="1.1" xmlns="http://www.w3.org/2000/svg" xmlns:xlink="http://www.w3.org/1999/xlink">
    <!-- Generator: Sketch 51.3 (57544) - http://www.bohemiancoding.com/sketch -->
    <title>key</title>
    <desc>Created with Sketch.</desc>
    <defs></defs>
    <g id="-Admin" stroke="none" stroke-width="1" fill="none" fill-rule="evenodd">
        <g id="1" transform="translate(-304.000000, -443.000000)" fill="#000000">
            <g id="Group-2" transform="translate(32.000000, 428.000000)">
                <path d="M286.13894,15 C282.906025,15 280.275725,17.6303 280.275725,20.8632153 C280.275725,21.9641308 280.587378,22.9913358 281.117576,23.8737062 L272.202057,32.7896557 C271.932648,33.0590654 271.932648,33.4948624 272.202057,33.764272 C272.336546,33.8991923 272.513279,33.966437 272.690443,33.966437 C272.865451,33.966437 273.042184,33.8991923 273.176673,33.764272 L274.414665,32.5284362 L276.684171,34.7983738 C276.819091,34.9328631 276.995824,35.0001078 277.172557,35.0001078 C277.34929,35.0001078 277.524298,34.9328631 277.660943,34.7983738 C277.928628,34.5289642 277.928628,34.0927362 277.660943,33.8233266 L275.389281,31.5516647 L276.138886,30.8042146 L277.719997,32.3853258 C277.854486,32.5202461 278.029495,32.5874908 278.206228,32.5874908 C278.383391,32.5874908 278.560124,32.5202461 278.694613,32.3853258 C278.964023,32.1159162 278.964023,31.6796881 278.694613,31.4102785 L277.113502,29.8274431 L277.863108,29.0799931 L280.132614,31.3499308 C280.267535,31.48442 280.444267,31.5516647 280.621,31.5516647 C280.797733,31.5516647 280.972741,31.48442 281.109386,31.3499308 C281.377071,31.0805211 281.377071,30.6442931 281.109386,30.3748835 L278.837724,28.1032216 L281.966324,24.9750527 C283.0306,26.0544154 284.507395,26.7242754 286.13894,26.7242754 C289.371855,26.7242754 292,24.0944065 292,20.8632153 C292,17.6303 289.371855,15 286.13894,15 Z M286.13894,25.3453292 C283.666837,25.3453292 281.654671,23.3348869 281.654671,20.8632153 C281.654671,18.3911127 283.666837,16.3789462 286.13894,16.3789462 C288.610612,16.3789462 290.621054,18.3911127 290.621054,20.8632153 C290.621054,23.3348869 288.610612,25.3453292 286.13894,25.3453292 Z" id="key"></path>
            </g>
        </g>
    </g>
</svg>