<?xml version="1.0" encoding="UTF-8"?>
<svg width="24px" height="35px" viewBox="0 0 24 35" version="1.1" xmlns="http://www.w3.org/2000/svg" xmlns:xlink="http://www.w3.org/1999/xlink">
    <!-- Generator: Sketch 51.3 (57544) - http://www.bohemiancoding.com/sketch -->
    <title>Group 4 Copy</title>
    <desc>Created with Sketch.</desc>
    <defs></defs>
    <g id="Page-1" stroke="none" stroke-width="1" fill="none" fill-rule="evenodd">
        <g id="Sign-Up-A-Copy-27" transform="translate(-1267.000000, -466.000000)" fill="#000000" stroke="#000000" stroke-width="0.3">
            <g id="Group-6" transform="translate(1267.333333, 467.000000)">
                <g id="Group-4-Copy">
                    <g id="Group">
                        <path d="M20.1036327,4.1429854 L17.037037,4.1429854 L17.037037,3.97774453 C17.037037,2.95145255 16.2989074,2.11657664 15.3915432,2.11657664 L14.3383704,2.11657664 C13.8578549,0.868277372 12.7572623,0.0321167883 11.5263364,0.0321167883 L11.4168025,0.0321167883 C10.1858765,0.0321167883 9.08528395,0.868277372 8.60476852,2.11657664 L7.55187963,2.11657664 C6.64430247,2.11657664 5.90610185,2.95145255 5.90610185,3.97774453 L5.90610185,4.1429854 L2.83950617,4.1429854 C1.0614784,4.1429854 0,5.10367883 0,6.71232847 L0,29.7081898 C0,31.4789489 1.27387346,32.9198686 2.83950617,32.9198686 L20.1036327,32.9198686 C21.6695494,32.9198686 22.9431389,31.4789489 22.9431389,29.7081898 L22.9431389,15.1699635 C22.9431389,14.8152336 22.6888611,14.5276277 22.3752377,14.5276277 C22.0616142,14.5276277 21.8073364,14.8152336 21.8073364,15.1699635 L21.8073364,29.7081898 C21.8073364,30.7707737 21.0431543,31.6351971 20.1036327,31.6351971 L2.83950617,31.6351971 C1.90005556,31.6351971 1.13580247,30.7707737 1.13580247,29.7081898 L1.13580247,6.71232847 C1.13580247,6.39461314 1.13580247,5.42765693 2.83950617,5.42765693 L5.90610185,5.42765693 L5.90610185,6.32684672 C5.90610185,6.68189781 6.16037963,6.96918248 6.47400309,6.96918248 L16.4691358,6.96918248 C16.7827593,6.96918248 17.037037,6.68189781 17.037037,6.32684672 L17.037037,5.42765693 L20.1036327,5.42765693 C21.0431543,5.42765693 21.8073364,6.29208029 21.8073364,7.35466423 L21.8073364,9.51724818 C21.8073364,9.87229927 22.0616142,10.1595839 22.3752377,10.1595839 C22.6888611,10.1595839 22.9431389,9.87229927 22.9431389,9.51724818 L22.9431389,7.35466423 C22.9431389,5.58390511 21.6695494,4.1429854 20.1036327,4.1429854 Z M15.9012346,5.68451095 L7.04190432,5.68451095 L7.04190432,3.97774453 C7.04190432,3.65970803 7.27069753,3.40124818 7.55187963,3.40124818 L9.00570679,3.40124818 C9.26225617,3.40124818 9.48657716,3.20678102 9.55394444,2.9270438 C9.7813179,1.97887591 10.5474877,1.31678832 11.4168025,1.31678832 L11.5263364,1.31678832 C12.3956512,1.31678832 13.1621049,1.97887591 13.3894784,2.9270438 C13.4565617,3.20678102 13.6812377,3.40124818 13.9374321,3.40124818 L15.3915432,3.40124818 C15.6727253,3.40124818 15.9012346,3.65970803 15.9012346,3.97774453 L15.9012346,5.68451095 Z" id="Fill-1"></path>
                        <path d="M6.49988839,10 C5.12129645,10 4,11.1215941 4,12.500186 C4,13.8787036 5.12129645,15 6.49988839,15 C7.87840593,15 9,13.8787036 9,12.500186 C9,11.1215941 7.87840593,10 6.49988839,10 Z M6.49988839,13.8095061 C5.77792824,13.8095061 5.19049391,13.2224438 5.19049391,12.500186 C5.19049391,11.7779282 5.77792824,11.1904939 6.49988839,11.1904939 C7.22184854,11.1904939 7.80950609,11.7779282 7.80950609,12.500186 C7.80950609,13.2224438 7.22184854,13.8095061 6.49988839,13.8095061 Z" id="Fill-7"></path>
                        <path d="M6.49988839,17 C5.12129645,17 4,18.1215941 4,19.500186 C4,20.8787036 5.12129645,22 6.49988839,22 C7.87840593,22 9,20.8787036 9,19.500186 C9,18.1215941 7.87840593,17 6.49988839,17 Z M6.49988839,20.8095061 C5.77792824,20.8095061 5.19049391,20.2224438 5.19049391,19.500186 C5.19049391,18.7779282 5.77792824,18.1904939 6.49988839,18.1904939 C7.22184854,18.1904939 7.80950609,18.7779282 7.80950609,19.500186 C7.80950609,20.2224438 7.22184854,20.8095061 6.49988839,20.8095061 Z" id="Fill-8"></path>
                        <path d="M6.49988839,24 C5.12129645,24 4,25.1215941 4,26.500186 C4,27.8787036 5.12129645,29 6.49988839,29 C7.87840593,29 9,27.8787036 9,26.500186 C9,25.1215941 7.87840593,24 6.49988839,24 Z M6.49988839,27.8095061 C5.77792824,27.8095061 5.19049391,27.2224438 5.19049391,26.500186 C5.19049391,25.7779282 5.77792824,25.1904939 6.49988839,25.1904939 C7.22184854,25.1904939 7.80950609,25.7779282 7.80950609,26.500186 C7.80950609,27.2224438 7.22184854,27.8095061 6.49988839,27.8095061 Z" id="Fill-9"></path>
                        <path d="M18.4056472,14 L11.5940557,14 C11.2659885,14 11,14.223875 11,14.5 C11,14.776375 11.2659885,15 11.5940557,15 L18.4059443,15 C18.7340115,15 19,14.776375 19,14.5 C19,14.223875 18.7340115,14 18.4056472,14 Z" id="Fill-10"></path>
                        <path d="M18.4056472,11 L11.5940557,11 C11.2659885,11 11,11.223875 11,11.5 C11,11.776125 11.2659885,12 11.5940557,12 L18.4059443,12 C18.7340115,12 19,11.776125 19,11.5 C19,11.223875 18.7340115,11 18.4056472,11 Z" id="Fill-11"></path>
                        <path d="M18.4056472,21 L11.5940557,21 C11.2659885,21 11,21.223875 11,21.5 C11,21.776375 11.2659885,22 11.5940557,22 L18.4059443,22 C18.7340115,22 19,21.776375 19,21.5 C19,21.223875 18.7340115,21 18.4056472,21 Z" id="Fill-12"></path>
                        <path d="M18.4056472,18 L11.5940557,18 C11.2659885,18 11,18.223875 11,18.5 C11,18.776125 11.2659885,19 11.5940557,19 L18.4059443,19 C18.7340115,19 19,18.776125 19,18.5 C19,18.223875 18.7340115,18 18.4056472,18 Z" id="Fill-13"></path>
                        <path d="M18.4056472,29 L11.5940557,29 C11.2659885,29 11,29.223875 11,29.5 C11,29.776375 11.2659885,30 11.5940557,30 L18.4059443,30 C18.7340115,30 19,29.776375 19,29.5 C19,29.223875 18.7340115,29 18.4056472,29 Z" id="Fill-14"></path>
                        <path d="M18.4056472,26 L11.5940557,26 C11.2659885,26 11,26.223875 11,26.5 C11,26.776125 11.2659885,27 11.5940557,27 L18.4059443,27 C18.7340115,27 19,26.776125 19,26.5 C19,26.223875 18.7340115,26 18.4056472,26 Z" id="Fill-15"></path>
                    </g>
                </g>
            </g>
        </g>
    </g>
</svg>