<?xml version="1.0" encoding="UTF-8"?>
<svg width="20px" height="20px" viewBox="0 0 20 20" version="1.1" xmlns="http://www.w3.org/2000/svg" xmlns:xlink="http://www.w3.org/1999/xlink">
    <!-- Generator: Sketch 51.3 (57544) - http://www.bohemiancoding.com/sketch -->
    <title>Fill 1</title>
    <desc>Created with Sketch.</desc>
    <defs></defs>
    <g id="Symbols" stroke="none" stroke-width="1" fill="none" fill-rule="evenodd">
        <g id="Search-Field" transform="translate(-275.000000, -14.000000)" fill="#000000">
            <g id="Group-2">
                <g id="Group-8">
                    <path d="M294.261731,32.1156249 L289.573736,27.4276299 C290.73576,26.0108046 291.436089,24.1960583 291.436089,22.2180446 C291.436089,17.6812287 287.75486,14 283.218045,14 C278.677348,14 275,17.6812287 275,22.2180446 C275,26.7548605 278.677348,30.4360892 283.218045,30.4360892 C285.196058,30.4360892 287.006725,29.7396405 288.423551,28.5776159 L293.111546,33.2617307 C293.430022,33.5802564 293.943454,33.5802564 294.261731,33.2617307 C294.580256,32.9473338 294.580256,32.4300217 294.261731,32.1156249 Z M283.218045,28.8005292 C279.584622,28.8005292 276.631729,25.8475868 276.631729,22.2180446 C276.631729,18.5885023 279.584622,15.6317295 283.218045,15.6317295 C286.847587,15.6317295 289.804608,18.5885023 289.804608,22.2180446 C289.804608,25.8475868 286.847587,28.8005292 283.218045,28.8005292 Z" id="Fill-1"></path>
                </g>
            </g>
        </g>
    </g>
</svg>