<?xml version="1.0" encoding="utf-8"?>
<!-- Generator: Adobe Illustrator 22.0.1, SVG Export Plug-In . SVG Version: 6.00 Build 0)  -->
<svg version="1.1" id="Layer_1" xmlns="http://www.w3.org/2000/svg" xmlns:xlink="http://www.w3.org/1999/xlink" x="0px" y="0px"
	 viewBox="0 0 87 87" style="enable-background:new 0 0 87 87;" xml:space="preserve">
<style type="text/css">
	.st0{fill:#91BD2C;}
</style>
<title>Group 2</title>
<desc>Created with Sketch.</desc>
<g>
	<path class="st0" d="M43.5,84v2.7c11.9,0,22.7-4.8,30.5-12.6c7.8-7.8,12.6-18.6,12.6-30.5c0-11.9-4.8-22.7-12.6-30.5
		C66.2,5.2,55.4,0.3,43.5,0.3C31.6,0.3,20.8,5.2,13,13C5.2,20.8,0.3,31.6,0.3,43.5C0.3,55.4,5.2,66.2,13,74
		c7.8,7.8,18.6,12.6,30.5,12.6V84v-2.7c-10.5,0-19.9-4.2-26.8-11.1C9.9,63.4,5.7,54,5.7,43.5c0-10.5,4.2-19.9,11.1-26.7
		C23.6,9.9,33,5.7,43.5,5.7c10.5,0,19.9,4.2,26.8,11.1c6.9,6.9,11.1,16.3,11.1,26.7c0,10.5-4.2,19.9-11.1,26.8
		C63.4,77.1,54,81.3,43.5,81.3V84z"/>
	<path class="st0" d="M25.1,45.7l12.3,12l23-22.4c0.8-0.8,0.8-2,0-2.8l-1-1c-0.8-0.8-2-0.8-2.8,0L37.5,50.3l-7.2-7
		c-0.8-0.8-2-0.7-2.8,0L25.1,45.7L25.1,45.7z"/>
</g>
</svg>
