<?xml version="1.0" encoding="UTF-8"?>
<svg width="56px" height="56px" viewBox="0 0 56 56" version="1.1" xmlns="http://www.w3.org/2000/svg" xmlns:xlink="http://www.w3.org/1999/xlink">
    <!-- Generator: Sketch 51.3 (57544) - http://www.bohemiancoding.com/sketch -->
    <title>Group 20</title>
    <desc>Created with Sketch.</desc>
    <defs></defs>
    <g id="Page-1" stroke="none" stroke-width="1" fill="none" fill-rule="evenodd">
        <g id="Sign-Up-A-Copy-27" transform="translate(-571.000000, -849.000000)">
            <g id="Group-20" transform="translate(571.000000, 849.000000)">
                <circle id="Oval-7" fill="#E37B59" transform="translate(28.000000, 28.000000) scale(-1, 1) translate(-28.000000, -28.000000) " cx="28" cy="28" r="28"></circle>
                <rect id="Rectangle" fill="#E37B59" x="0" y="0" width="56" height="56" rx="11"></rect>
                <g id="weight-(1)" transform="translate(11.000000, 5.000000)" fill="#FFFFFF" fill-rule="nonzero">
                    <path d="M17.5,0 C11.0384247,0 4.96267152,2.66685463 0.393791817,7.510837 C-0.131263939,8.06733874 -0.131263939,8.96879944 0.393791817,9.52516763 L7.99594899,17.5826237 C8.52100475,18.1391254 9.37152703,18.1391254 9.89645679,17.5826237 C14.0887126,13.1392905 20.9112874,13.1392905 25.1034172,17.5826237 C25.3658821,17.8608078 25.7098711,17.9999666 26.0537341,17.9999666 C26.3975971,17.9999666 26.7414601,17.8608078 27.004051,17.5826237 L34.6062082,9.52516763 C35.1312639,8.96866589 35.1312639,8.06720519 34.6062082,7.510837 C30.0373285,2.66685463 23.9615753,0 17.5,0 Z M26.6044227,15.6111421 C23.9661521,13.10773 20.7323388,11.8561021 17.5000089,11.8561021 C16.1415618,11.8561021 14.7922852,12.1281476 13.4776677,12.5702019 L11.6167315,7.8258914 C11.2907743,6.98928517 10.4395366,6.6148906 9.71183078,6.99897318 C8.98830566,7.37993059 8.66949608,8.36779473 8.99815046,9.20611981 L10.8000179,13.7993287 C9.9619965,14.3104491 9.14986821,14.8951672 8.39559496,15.6111421 L2.27334526,8.51764632 C6.48071461,4.20429583 11.8343959,1.84901646 17.499874,1.84901646 C23.1653521,1.84901646 28.5190334,4.20429583 32.7264027,8.51764632 L26.6044227,15.6111421 Z" id="Shape"></path>
                </g>
            </g>
        </g>
    </g>
</svg>