<?xml version="1.0" encoding="UTF-8"?>
<svg width="28px" height="33px" viewBox="0 0 28 33" version="1.1" xmlns="http://www.w3.org/2000/svg" xmlns:xlink="http://www.w3.org/1999/xlink">
    <!-- Generator: Sketch 51.3 (57544) - http://www.bohemiancoding.com/sketch -->
    <title>Group 6 Copy</title>
    <desc>Created with Sketch.</desc>
    <defs></defs>
    <g id="Page-1" stroke="none" stroke-width="1" fill="none" fill-rule="evenodd">
        <g id="Sign-Up-A-Copy-27" transform="translate(-1586.000000, -467.000000)" fill="#000000">
            <g id="Group-5" transform="translate(1586.666667, 467.000000)">
                <g id="Group-6-Copy">
                    <path d="M13.8892776,17 L14.1040241,17 C16.0711485,16.9674962 17.6623198,16.2943889 18.8371733,15.0074654 C21.4215994,12.1717093 20.9921904,7.31091468 20.9449445,6.84704074 C20.7771083,3.36463778 19.0853192,1.69877498 17.6892575,0.921296118 C16.6484212,0.339738663 15.433287,0.0261337433 14.0771703,0 L13.9630417,0 C13.2179328,0 11.754317,0.117683513 10.3512901,0.895162375 C8.94138195,1.67255957 7.22273905,3.33850404 7.05490283,6.84704074 C7.0079926,7.31091468 6.57824796,12.1717093 9.16300967,15.0074654 C10.3309819,16.2943889 11.9221532,16.9674962 13.8892776,17 Z M8.84730974,7.01037663 C8.84730974,6.99093966 8.85419103,6.97109435 8.85419103,6.95802748 C9.07581876,2.27363566 12.4928803,1.77056111 13.9564961,1.77056111 L14.0368057,1.77056111 C15.8496047,1.80976172 18.9309099,2.52852133 19.1391107,6.95802748 C19.1391107,6.97779112 19.1391107,6.99730976 19.145992,7.01037663 C19.1525376,7.05594735 19.6226469,11.4989287 17.4876023,13.8378987 C16.6418756,14.7656466 15.5139323,15.2227421 14.0302601,15.2358907 L13.9630417,15.2358907 C12.4863347,15.2227421 11.3514262,14.7656466 10.5122451,13.8378987 C8.38416569,11.5119956 8.84076413,7.04957725 8.84730974,7.01037663 Z" id="Fill-1"></path>
                    <path d="M26.9982101,25.896104 L26.9982101,25.8748212 C26.9982101,25.8175007 26.9914724,25.7601802 26.9914724,25.6959741 C26.9522793,24.2795052 26.8665802,20.9673464 24.0139418,19.9085716 C23.9943042,19.9012389 23.9680111,19.8942639 23.9481269,19.8869311 C20.9837428,19.0642345 18.5187636,17.2042247 18.4923883,17.1828525 C18.0915827,16.8751461 17.5391808,16.9823649 17.2566942,17.4186624 C16.9739611,17.8553176 17.0724781,18.4561544 17.4733659,18.7638608 C17.5853581,18.8494392 20.2015228,20.8310649 23.4750152,21.7469409 C25.0063425,22.3408027 25.177412,24.1219409 25.2232607,25.7532052 C25.2232607,25.8175007 25.2232607,25.8748212 25.2299983,25.9320523 C25.2364894,26.5758124 25.1969676,27.5703811 25.0920416,28.142513 C24.0270884,28.8005808 19.8529747,31.0756947 13.503106,31.0756947 C7.17985901,31.0756947 2.97945219,28.7936058 1.90809004,28.1355379 C1.80275326,27.5630484 1.75690464,26.5684797 1.7700512,25.9247196 C1.7700512,25.8674885 1.77646014,25.8105257 1.77646014,25.7458725 C1.82271959,24.1149658 1.99346048,22.3334699 3.52503426,21.7396082 C6.79852671,20.8240899 9.41469136,18.8354891 9.52635493,18.7565281 C9.92724272,18.4491794 10.0260884,17.8479849 9.74335527,17.4116874 C9.46062215,16.9753899 8.90854896,16.8681711 8.50766116,17.1755198 C8.48136805,17.1972497 6.02953535,19.0569018 3.05167608,19.8799561 C3.0253008,19.8869311 3.0057453,19.8942639 2.98586113,19.9012389 C0.133140639,20.9673464 0.0477701911,24.2795052 0.00833052305,25.6886414 C0.00833052305,25.7532052 0.00833052305,25.8105257 0.00183941101,25.8674885 L0.00183941101,25.889129 C-0.00489819896,26.261131 -0.011307145,28.1711285 0.336994424,29.1296595 C0.402727204,29.3158393 0.520881876,29.4730459 0.678804881,29.5802647 C0.875838889,29.7235213 5.60235445,33 13.5098436,33 C21.4173327,33 26.1438482,29.7165462 26.3408823,29.5802647 C26.4920677,29.4730459 26.6168778,29.3158393 26.6826927,29.1296595 C27.0113566,28.1781035 27.004619,26.268106 26.9982101,25.896104 Z" id="Fill-3"></path>
                </g>
            </g>
        </g>
    </g>
</svg>